<svg height="511pt" viewBox="0 -9 511.9996 511" width="511pt" xmlns="http://www.w3.org/2000/svg"><path d="m510.804688 76.359375-27.324219-63.203125c-3.382813-7.808594-10.695313-12.65625-19.085938-12.65625h-292.992187c-13.222656 0-21.125 10.664062-21.125 20.972656v211c0 4.144532 3.363281 7.507813 7.507812 7.507813 4.148438 0 7.507813-3.363281 7.507813-7.507813v-211c0-4.714844 3.996093-5.957031 6.109375-5.957031h272.671875c-.519531 1.839844-.800781 3.828125-.800781 5.957031v117.75c0 4.148438 3.359374 7.507813 7.507812 7.507813 4.144531 0 7.507812-3.359375 7.507812-7.507813v-42.640625h39.226563c4.890625 0 9.414063-2.441406 12.101563-6.527343 2.683593-4.085938 3.128906-9.207032 1.1875-13.695313zm-52.515626 5.207031v-60.09375c0-4.714844 3.992188-5.957031 6.105469-5.957031 1.707031 0 4.015625.625 5.308594 3.601563l26.996094 62.449218zm0 0"/><path d="m450.78125 326.019531c-4.144531 0-7.507812 3.363281-7.507812 7.507813v84.699218l-24.890626-16.902343c-2.546874-1.730469-5.890624-1.730469-8.433593 0l-32.402344 22-32.410156-22c-2.546875-1.730469-5.890625-1.730469-8.433594 0l-32.410156 22-32.402344-22c-2.542969-1.730469-5.886719-1.730469-8.433594 0l-29.113281 19.761719 9.871094-45.839844h.421875c10.195312 0 18.492187-8.296875 18.492187-18.496094v-16.355469c0-10.195312-8.296875-18.492187-18.492187-18.492187h-49.203125l-41.535156-65.441406c-2.222657-3.5-6.863282-4.535157-10.363282-2.3125-3.5 2.222656-4.539062 6.859374-2.316406 10.359374l36.429688 57.394532h-92.167969l36.429687-57.394532c2.222656-3.5 1.183594-8.136718-2.316406-10.359374-3.5-2.222657-8.140625-1.1875-10.363281 2.3125l-41.535157 65.441406h-49.203124c-10.195313-.003906-18.492188 8.292968-18.492188 18.492187v16.355469c0 10.199219 8.296875 18.492188 18.492188 18.492188h.421874l4.320313 20.054687c.757813 3.519531 3.871094 5.929687 7.332031 5.929687.523438 0 1.054688-.054687 1.585938-.171874 4.054687-.871094 6.632812-4.863282 5.757812-8.917969l-3.636718-16.894531h194.582031l-20.757813 96.410156c-.726562 3.378906-3.761718 5.832031-7.21875 5.832031h-138.628906c-3.453125 0-6.492188-2.453125-7.21875-5.832031l-10.746094-49.917969c-.875-4.054687-4.871094-6.632813-8.921875-5.761719-4.050781.875-6.628906 4.867188-5.757812 8.921875l10.746093 49.917969c2.207032 10.25 11.417969 17.6875 21.898438 17.6875h138.628906c10.484375 0 19.691406-7.4375 21.898438-17.6875l7.523437-34.941406c.25.023437.496094.035156.746094.035156 1.472656 0 2.945313-.433594 4.21875-1.296875l32.410156-22 32.398438 22c2.546875 1.730469 5.890625 1.730469 8.4375 0l32.410156-22 32.410156 22c2.546875 1.730469 5.886719 1.730469 8.433594 0l32.398437-22 32.402344 22c2.296875 1.5625 5.273438 1.726563 7.730469.425781 2.457031-1.304687 3.992187-3.855468 3.992187-6.636718v-98.871094c0-4.144532-3.359374-7.507813-7.507812-7.507813zm-435.765625 30.730469v-16.355469c0-1.917969 1.558594-3.480469 3.476563-3.480469h39.671874l-1.34375 2.117188c-2.222656 3.5-1.1875 8.140625 2.316407 10.363281 1.246093.792969 2.640625 1.171875 4.015625 1.171875 2.484375 0 4.914062-1.234375 6.34375-3.484375l6.453125-10.164062h111.234375l6.449218 10.164062c1.429688 2.25 3.863282 3.484375 6.347657 3.484375 1.375 0 2.765625-.378906 4.015625-1.171875 3.5-2.222656 4.535156-6.859375 2.316406-10.363281l-1.34375-2.117188h39.667969c1.917969 0 3.476562 1.5625 3.476562 3.480469v16.355469c0 1.917969-1.558593 3.480469-3.476562 3.480469h-6.355469c-.09375-.003907-.1875-.003907-.285156 0h-212.878906c-.082032-.003907-.167969-.003907-.25 0h-6.375c-1.917969 0-3.476563-1.5625-3.476563-3.480469zm0 0"/><path d="m226.480469 134.753906h.066406c2.289063-.019531 4.441406-1.082031 5.847656-2.882812l29.144531-37.300782c2.550782-3.265624 1.972657-7.984374-1.296874-10.539062-3.265626-2.554688-7.984376-1.972656-10.539063 1.292969l-23.335937 29.871093-6.164063-7.597656c-2.613281-3.21875-7.339844-3.710937-10.558594-1.101562-3.222656 2.613281-3.714843 7.34375-1.101562 10.5625l12.105469 14.921875c1.425781 1.757812 3.570312 2.773437 5.832031 2.773437zm0 0"/><path d="m297.84375 119.542969h109.964844c4.148437 0 7.507812-3.363281 7.507812-7.507813 0-4.148437-3.359375-7.507812-7.507812-7.507812h-109.964844c-4.148438 0-7.507812 3.359375-7.507812 7.507812 0 4.144532 3.359374 7.507813 7.507812 7.507813zm0 0"/><path d="m208.542969 196.214844 12.105469 14.917968c1.425781 1.757813 3.570312 2.777344 5.832031 2.777344h.066406c2.289063-.019531 4.441406-1.082031 5.847656-2.882812l29.144531-37.300782c2.550782-3.269531 1.972657-7.988281-1.296874-10.539062-3.265626-2.554688-7.984376-1.972656-10.539063 1.292969l-23.335937 29.871093-6.164063-7.597656c-2.613281-3.21875-7.339844-3.714844-10.558594-1.101562-3.222656 2.613281-3.714843 7.339844-1.101562 10.5625zm0 0"/><path d="m297.84375 198.695312h109.964844c4.148437 0 7.507812-3.359374 7.507812-7.507812 0-4.144531-3.359375-7.507812-7.507812-7.507812h-109.964844c-4.148438 0-7.507812 3.363281-7.507812 7.507812 0 4.148438 3.359374 7.507812 7.507812 7.507812zm0 0"/><path d="m208.542969 275.367188 12.105469 14.921874c1.425781 1.757813 3.570312 2.777344 5.832031 2.777344h.066406c2.289063-.023437 4.441406-1.085937 5.847656-2.886718l29.144531-37.300782c2.550782-3.265625 1.972657-7.984375-1.296874-10.539062-3.265626-2.550782-7.984376-1.972656-10.539063 1.292968l-23.335937 29.871094-6.164063-7.597656c-2.613281-3.21875-7.339844-3.714844-10.558594-1.101562-3.222656 2.613281-3.714843 7.34375-1.101562 10.5625zm0 0"/><path d="m93.039062 411.660156v-15c0-4.144531-3.363281-7.503906-7.507812-7.503906-4.148438 0-7.507812 3.359375-7.507812 7.503906v15c0 4.148438 3.359374 7.507813 7.507812 7.507813 4.144531 0 7.507812-3.359375 7.507812-7.507813zm0 0"/><path d="m139.074219 411.660156v-15c0-4.144531-3.363281-7.503906-7.507813-7.503906-4.148437 0-7.507812 3.359375-7.507812 7.503906v15c0 4.148438 3.359375 7.507813 7.507812 7.507813 4.144532 0 7.507813-3.359375 7.507813-7.507813zm0 0"/><path d="m185.105469 411.660156v-15c0-4.144531-3.359375-7.503906-7.507813-7.503906-4.144531 0-7.507812 3.359375-7.507812 7.503906v15c0 4.148438 3.363281 7.507813 7.507812 7.507813 4.148438 0 7.507813-3.359375 7.507813-7.507813zm0 0"/><path d="m116.054688 446.992188v-14.996094c0-4.148438-3.359376-7.507813-7.507813-7.507813-4.144531 0-7.507813 3.359375-7.507813 7.507813v14.996094c0 4.148437 3.363282 7.507812 7.507813 7.507812 4.148437 0 7.507813-3.359375 7.507813-7.507812zm0 0"/><path d="m162.089844 446.992188v-14.996094c0-4.148438-3.363282-7.507813-7.507813-7.507813-4.148437 0-7.507812 3.359375-7.507812 7.507813v14.996094c0 4.148437 3.359375 7.507812 7.507812 7.507812 4.144531 0 7.507813-3.359375 7.507813-7.507812zm0 0"/><path d="m504.09375 199.972656c-3.59375-2.074218-8.183594-.84375-10.257812 2.746094l-4.601563 7.96875-38.039063-21.960938 7.972657-13.8125c.382812-.660156.945312-.925781 1.351562-1.035156.398438-.109375 1.023438-.160156 1.679688.222656l24.933593 14.394532c3.59375 2.070312 8.183594.84375 10.257813-2.75 2.070313-3.589844.839844-8.183594-2.75-10.253906l-24.933594-14.394532c-3.984375-2.304687-8.628906-2.914062-13.074219-1.722656-4.445312 1.191406-8.164062 4.042969-10.464843 8.027344l-11.71875 20.300781c-.003907.003906-.007813.011719-.011719.015625-.003906.007812-.007812.011719-.011719.019531l-43.355469 75.097657h-93.226562c-4.144531 0-7.507812 3.359374-7.507812 7.507812 0 4.144531 3.363281 7.507812 7.507812 7.507812h84.554688l-17.800782 30.832032c-.617187 1.070312-.960937 2.28125-1 3.515625l-.4375 13.867187c-.007812.109375-.011718.21875-.011718.332032l-1.035157 32.789062c-.183593 5.8125 2.832031 11.226562 7.867188 14.132812 2.441406 1.410157 5.15625 2.113282 7.871093 2.113282 2.878907 0 5.753907-.792969 8.300782-2.367188l27.90625-17.308594c.074218-.046874.152344-.09375.226562-.140624l11.816406-7.328126c1.050782-.652343 1.925782-1.554687 2.546876-2.628906l69.824218-120.941406c.003906-.007812.007813-.011719.011719-.019531.003906-.007813.011719-.019531.015625-.027344l8.339844-14.445313c2.074218-3.589843.84375-8.179687-2.746094-10.253906zm-125.855469 160.332032c-.121093.074218-.371093.230468-.75.011718-.378906-.21875-.371093-.515625-.367187-.65625l.644531-20.40625 17.824219 10.289063zm38.347657-23.785157-6.519532 4.046875-31.761718-18.339844.242187-7.667968 23.265625-40.300782c.070312-.113281.132812-.222656.195312-.339843l41.679688-72.1875 38.039062 21.964843zm0 0"/></svg>