<svg id="icons" enable-background="new 0 0 64 64" height="512" viewBox="0 0 64 64" width="512" xmlns="http://www.w3.org/2000/svg"><path d="m55.5 52.5v10h-4v-5-5z" fill="#d3374e"/><path d="m51.5 57.5v5h-36.999c-2.76 0-5-2.24-5-5s2.24-5 5-5h2 34.999z" fill="#e6e9ed"/><path d="m15.5.5v52h-2c-2.76 0-5 2.24-5 5v-52c0-2.76 2.24-5 5-5z" fill="#656d78"/><path d="m15.5.5v52h36 4v-51l-1.001-1z" fill="#ed5565"/><path d="m54.499 53.5h-39.998c-.553 0-1-.447-1-1s.447-1 1-1h39.998c.553 0 1 .447 1 1s-.447 1-1 1z" fill="#da4453"/><path d="m54.499 63.5h-39.998c-.553 0-1-.447-1-1s.447-1 1-1h39.998c.553 0 1 .447 1 1s-.447 1-1 1z" fill="#d3374e"/><path d="m14.501 56.502c-.553 0-1 .447-1 1s.447 1 1 1h36.999v-1.002-.998z" fill="#ccd1d9"/><path d="m14.501 63.5c-3.309 0-6-2.691-6-6s2.691-6 6-6c.553 0 1 .447 1 1s-.447 1-1 1c-2.206 0-4 1.794-4 4s1.794 4 4 4c.553 0 1 .447 1 1s-.447 1-1 1z" fill="#545c66"/><path d="m14.501 51.5h1v2h-1z" fill="#545c66"/><path d="m14.501 61.5h1v2h-1z" fill="#545c66"/><path d="m27.5 30.001h16v1.999h-16z" fill="#ccd1d9"/><path d="m40.7 12h2.8c2.76 0 5 2.24 5 5s-2.24 5-5 5v8.001h-16v-8.001c-2.76 0-5-2.24-5-5s2.24-5 5-5h2.81c1.03-1.79 2.971-3 5.19-3s4.16 1.21 5.2 3z" fill="#e6e9ed"/><path d="m42.502 32.998h-13.999c-.553 0-1-.447-1-1s.447-1 1-1h13.999c.553 0 1 .447 1 1s-.447 1-1 1z" fill="#ccd1d9"/><g fill="#da4453"><path d="m46.499 38.999h-21.994c-.553 0-1-.447-1-1s.447-1 1-1h21.994c.553 0 1 .447 1 1s-.447 1-1 1z"/><path d="m46.499 41.999h-21.994c-.553 0-1-.447-1-1s.447-1 1-1h21.994c.553 0 1 .447 1 1s-.447 1-1 1z"/><path d="m41.5 45.025h-11.996c-.553 0-1-.447-1-1s.447-1 1-1h11.996c.553 0 1 .447 1 1s-.447 1-1 1z"/></g><circle cx="54.5" cy="1.5" fill="#ed5565" r="1"/></svg>